<svg width="384" height="393" viewBox="0 0 384 393" fill="none" xmlns="http://www.w3.org/2000/svg">
<path d="M103.011 75.2045C121.502 74.3335 131.536 80.0724 142.961 94.2642C150.129 91.6967 159.344 88.354 166.877 86.8217C181.153 83.9188 200.095 83.9725 214.405 86.5739C222.167 87.9846 231.815 91.529 239.167 94.2434C249.773 78.8066 266.651 71.7604 285.014 76.5184C295.219 79.2399 303.939 85.8722 309.295 94.9782C314.96 104.567 316.572 116.023 313.759 126.802C310.324 139.696 301.71 147.676 290.512 154.146C299.871 183.404 304.223 221.336 281.842 245.866C250.406 277.484 179.571 277.256 138.587 266.782C79.1024 251.586 77.4551 204.529 91.4508 154.309C89.6277 153.246 87.8644 152.206 86.1396 150.991C54.1527 128.47 63.7979 81.5474 103.011 75.2045Z" fill="black"/>
<path d="M186.269 190.823C189.836 190.635 194.508 190.453 197.999 191.005C238.678 197.446 239.423 252.621 196.393 257.794C142.628 261.817 140.478 195.231 186.269 190.823Z" fill="#5C4FC1"/>
<path d="M188.269 198.931C211.791 198.247 214.142 211.609 194.912 223.831C194.851 227.459 194.213 234.756 197.253 237.228C200.962 238.292 205.492 234.467 209.662 237.593C209.966 238.505 210.296 238.774 209.982 239.696C207.62 246.612 198.809 244.748 193.777 242.432C192.794 241.515 192.51 241.013 191.218 240.821C185.371 243.922 173.356 248.644 172.188 238.328C173.556 234.634 178.714 236.904 181.849 237.659L187.286 235.612C187.839 231.513 187.808 228.346 187.844 224.196C182.002 220.36 169.662 212.08 176.576 202.924C178.878 199.874 184.555 199.215 188.269 198.931Z" fill="black"/>
<path d="M136.671 136.916C154.874 135.034 171.12 148.353 172.845 166.572C174.568 184.79 161.109 200.919 142.875 202.484C124.865 204.035 108.974 190.774 107.272 172.776C105.569 154.78 118.69 138.775 136.671 136.916Z" fill="#5C4FC1"/>
<path d="M135.943 145.713C149.237 143.432 161.839 152.436 163.99 165.752C166.141 179.07 157.013 191.58 143.676 193.602C130.523 195.593 118.22 186.62 116.099 173.486C113.978 160.353 122.831 147.962 135.943 145.713Z" fill="black"/>
<path d="M139.756 155.395C141.86 157.341 143.061 162.983 143.696 165.812C147.913 166.888 150.48 168.133 154.392 169.979C150.09 171.307 148.081 171.955 144.133 174.023L140.325 183.234C139.123 182.555 137.225 176.678 135.68 174.043L135.47 173.931C131.797 171.986 129.451 171.317 125.453 170.021C128.46 168.611 132.522 167.091 135.668 165.814C137.203 162.371 138.819 159.048 139.756 155.395Z" fill="#5C4FC1"/>
<path d="M238.448 136.923C256.548 135.052 272.722 148.253 274.516 166.363C276.315 184.475 263.044 200.593 244.929 202.311C226.916 204.024 210.914 190.849 209.125 172.846C207.342 154.841 220.45 138.782 238.448 136.923Z" fill="#5C4FC1"/>
<path d="M237.299 145.649C250.514 143.188 263.207 151.938 265.609 165.161C268.011 178.382 259.204 191.04 245.969 193.381C232.82 195.706 220.264 186.966 217.877 173.832C215.491 160.691 224.17 148.095 237.299 145.649Z" fill="black"/>
<path d="M241.773 154.984C243.096 156.522 245.067 163.488 245.655 165.785C250.22 166.794 252.262 167.789 256.382 169.813C252.232 171.074 249.582 171.885 245.807 174.003C244.17 177.078 243.025 180.296 241.768 183.549C240.836 182.363 238.363 175.857 237.633 174.048C233.94 171.864 230.884 171.104 226.82 169.838C230.955 167.974 233.255 167.095 237.588 165.767C238.576 162.394 240.395 158.308 241.773 154.984Z" fill="#5C4FC1"/>
<path d="M104.941 96.535C106.258 96.4565 107.577 96.418 108.896 96.418C117.075 96.5021 120.683 99.2312 126.093 104.71C115.893 112.385 109.021 119.788 102.453 130.634C101.519 132.353 99.9901 134.644 98.9235 136.358C93.633 132.57 89.2485 128.363 87.9721 121.564C85.6721 109.314 92.802 99.1096 104.941 96.535Z" fill="#5C4FC1"/>
<path d="M269.869 96.5233C280.647 95.971 289.904 100.279 293.38 111.165C295.022 116.277 294.561 121.83 292.103 126.602C290.639 129.442 286.276 134.801 283.185 135.804L282.552 135.146C273.376 119.916 268.937 115.393 255.742 104.268C260.292 99.5539 263.545 97.5975 269.869 96.5233Z" fill="#5C4FC1"/>
<path d="M20.1142 121.121L60.0158 121.226C60.2909 124.751 60.9101 127.132 61.7112 130.57C52.2084 130.717 38.7508 131.031 29.4563 130.48C25.4599 140.785 20.9736 147.908 9.56862 150.979C8.63223 221.036 10.3875 292.026 9.50732 362.174C19.5857 365.752 26.3857 372.207 29.1351 382.772L246.094 382.67L316.912 382.706C327.177 382.721 343.853 382.265 353.754 383.056C357.347 372.491 361.578 365.427 373.191 362.443C372.974 353.454 373.029 344.161 373.105 335.167C373.617 273.926 372.34 212.417 373.207 151.201C361.674 147.169 357.62 142.006 353.648 130.744L325.323 130.729C323.088 130.684 323.093 131.072 321.73 129.98C321.213 127.835 322.475 123.6 322.911 121.138L363.26 121.158C363.478 135.544 368.342 141.928 383.108 142.222C383.939 173.082 383.265 206.545 383.244 237.646L383.214 370.905C367.922 371.057 363.822 378.105 363.371 392.161L20.1299 392.197C19.6602 378.835 14.204 371.194 0.0815851 371.082L0 142.133C14.6387 142.147 19.4235 134.936 20.1142 121.121Z" fill="black"/>
<path d="M179.807 0.292794C204.106 -1.17764 237.203 2.62729 257.304 17.7225C266.84 24.8817 269.977 38.5597 261.444 47.6834C248.133 61.9177 222.023 67.2467 203.254 68.4744C177.479 69.5968 147.681 67.5735 125.826 52.3875C115.517 45.2247 111.065 31.9467 120.21 21.827C134.548 5.96201 159.674 2.41589 179.807 0.292794ZM244.893 28.6668C229.104 16.4517 196.502 13.9707 177.703 15.9949C165.798 17.0616 144.714 20.6046 136.012 29.6356C132.201 33.5909 134.798 38.9054 139.205 41.4354C158.624 52.5824 183.968 53.0623 205.786 51.7479C216.138 50.8642 238.377 47.3284 245.638 38.9637C246.758 37.6682 247.736 35.7788 248.496 34.2264C247.695 32.684 246.17 29.6565 244.893 28.6668Z" fill="#5C4FC1"/>
<path d="M164.894 280.686C185.145 281.101 195.396 281.922 216.47 280.66C222.484 288.935 226.229 303.229 221.445 313.338C220.726 314.853 219.677 314.696 218.208 314.924C198.892 316.586 179.463 316.423 160.179 314.442C156.596 300.695 158.531 292.684 164.894 280.686Z" fill="black"/>
<path d="M120.171 272.59C131.628 275.615 148.069 279.045 159.982 280.282C153.223 291.622 152.606 301.736 155.649 314.393L149.292 313.613C137.815 312.402 126.178 309.706 114.924 307.162C106.781 305.318 106.197 299.293 107.106 291.976C108.198 283.19 113.469 277.586 120.171 272.59Z" fill="black"/>
<path d="M259.56 273.282C264.724 272.496 268.144 276.753 270.556 280.847C275.147 288.63 275.887 295.729 273.601 304.378C265.256 308.204 244.831 311.959 235.157 313.205L226.229 314.209C226.746 312.592 227.182 310.95 227.542 309.288C229.508 300.244 227.065 287.819 222.15 280.193C232.73 279.084 249.426 275.744 259.56 273.282Z" fill="#5C4FC1"/>
<path d="M55.1841 226.113C67.9192 225.495 71.758 233.131 73.95 243.838C75.2152 250.014 80.0801 254.625 85.1877 258.101C74.1253 262.201 69.6531 269.558 66.9478 280.427C66.8409 282.287 66.9047 284.42 66.9113 286.31C57.7602 279.783 50.1009 272.958 45.762 262.256C42.1476 253.561 42.2758 243.757 46.1161 235.158C48.106 230.618 50.6314 227.912 55.1841 226.113Z" fill="black"/>
<path d="M88.1225 260.949C90.6504 261.228 100.017 265.743 103.183 266.903C107.049 268.317 110.86 269.609 114.86 270.891C107.881 276.459 102.536 284.663 102.496 293.91C102.482 296.915 103.186 299.935 103.232 303.046L102.771 303.355L99.7929 302.296C89.6922 298.815 79.3848 295.324 71.1868 288.256C70.0133 274.848 76.4971 266.28 88.1225 260.949Z" fill="#5C4FC1"/>
<path d="M367.132 315.734C367.188 315.785 367.249 315.826 367.294 315.886C368.607 317.7 367.923 352.927 367.923 358.217C357.403 363.694 354.343 367.145 349.615 377.76C345.577 377.922 342.081 377.872 338.037 377.775L337.176 377.233C337.824 369.947 349.256 357.208 355.225 353.261C355.22 345.458 354.753 336.641 355.017 328.975C355.204 323.674 362.851 318.922 367.132 315.734Z" fill="#5C4FC1"/>
<path d="M15.6178 315.438C19.75 318.047 24.0307 321.898 28.3458 324.903C28.363 334.409 28.3133 343.909 28.1963 353.415C37.3028 360.418 42.5067 366.493 46.0308 377.555L33.8045 377.666C30.0483 369.153 24.1629 362.277 15.635 358.335C15.4318 344.142 15.5909 329.646 15.6178 315.438Z" fill="#5C4FC1"/>
<path d="M314.812 245.965C327.328 244.258 334.837 251.585 338.065 262.97C333.322 265.043 327.089 266.649 322.073 267.87C313.864 269.355 307.242 269.831 298.861 268.498C298.764 256.332 303.685 249.993 314.812 245.965Z" fill="#5C4FC1"/>
<path d="M337.262 136.66C341.782 136.514 345.45 136.353 349.985 136.721L350.173 137.177L350.502 137.934L350.831 138.726C354.12 146.485 360.094 151.821 367.831 154.929L367.917 190.001C366.179 190.062 358.305 183.262 355.179 181.432C355.037 174.379 355.062 167.327 355.245 160.276L354.784 159.991C346.666 154.87 339.496 146.114 337.262 136.66Z" fill="#5C4FC1"/>
<path d="M33.0926 136.516C37.1108 136.255 41.9169 136.395 46.0025 136.413C41.5516 147.489 37.6266 153.208 28.0423 160.34C28.3037 167.05 28.2343 174.439 28.3032 181.203C25.7707 182.516 23.9993 183.864 21.7049 185.51C19.1749 187.507 17.517 188.88 15.1836 191.099C16.0612 180.828 15.442 165.829 15.2606 155.202C24.3829 150.87 28.966 145.629 33.0926 136.516Z" fill="#5C4FC1"/>
<path d="M285.231 264.73L285.485 265.435C278.776 276.998 290.156 279.846 299.384 281.654C302.652 284.806 305.383 287.172 308.905 290.02C303.741 293.091 296.201 296.729 290.699 299.05C286.833 300.636 282.652 302.029 278.695 303.423C278.918 301.826 279.08 300.225 279.181 298.619C280.073 285.597 275.614 279.957 267.75 270.902C274.053 268.89 279.11 267.213 285.231 264.73Z" fill="black"/>
<path d="M323.68 225.667C336.404 225.403 339.11 243.878 339.581 253.414C336.591 249.796 334.767 247.967 330.992 245.317C327.248 243.209 322.069 240.6 317.605 241.152C315.254 241.446 311.205 243.508 309.396 241.785C308.753 232.654 315.806 227.709 323.68 225.667Z" fill="black"/>
<path d="M340.057 256.465C342.135 256.576 344.891 257.341 346.984 257.833L351.2 262.175C350.673 262.961 349.756 264.258 349.158 264.942C339.525 275.978 299.278 282.565 288.576 273.652C283.823 269.006 292.315 265.064 295.7 263.361C295.27 265.748 294.57 268.241 295.052 270.541C297.195 272.715 299.734 273.191 302.769 273.232C316.029 273.419 333.957 271.879 344.146 262.647C342.054 260.103 340.863 259.566 340.057 256.465Z" fill="black"/>
<path d="M75.8778 207.797L76.646 207.837C77.2641 208.638 79.7191 223.682 80.538 226.545C78.4736 228.065 76.8345 230.401 75.2008 232.438C73.3878 229.241 72.345 228.359 69.7674 225.876C64.8924 222.527 62.9674 222.015 57.2832 220.774C64.2636 215.139 67.995 211.942 75.8778 207.797Z" fill="black"/>
<path d="M305.302 207.453C311.661 210.24 319.272 215.667 324.309 220.43C320.782 221.418 317.382 222.811 314.18 224.585C311.104 226.85 309.457 228.943 307.01 231.826C305.246 229.424 303.904 228.502 301.613 226.678C302.946 220.268 304.344 213.929 305.302 207.453Z" fill="black"/>
<path d="M27.0916 187.934C27.6449 188.131 27.3004 187.969 28.0224 188.597C28.4967 193.634 28.255 200.708 28.2236 205.912C24.2409 209.388 20.1452 212.732 15.9441 215.939L15.3791 215.63C15.0112 211.252 15.1977 202.962 15.182 198.321C17.8549 195.656 23.9987 190.675 27.0916 187.934Z" fill="#5C4FC1"/>
<path d="M355.141 187.832C358.652 190.553 364.297 195.59 367.996 197.429C368.214 202.77 367.94 209.859 367.859 215.331C365.594 215.23 357.456 207.923 355.141 206.028V187.832Z" fill="#5C4FC1"/>
<path d="M367.153 290.352C368.44 291.826 367.863 305.269 367.842 308.132C363.758 311.339 359.699 314.587 355.681 317.876C354.511 316.832 355.139 302.781 355.23 300.334C357.875 297.567 363.976 292.895 367.153 290.352Z" fill="#5C4FC1"/>
<path d="M15.6486 289.738C19.946 293.153 24.1405 296.7 28.2256 300.369C28.2772 306.115 28.2549 311.866 28.1587 317.612C27.0961 317.126 17.227 309.317 15.4946 308.04C15.4692 301.94 15.5204 295.834 15.6486 289.738Z" fill="#5C4FC1"/>
<path d="M333.324 277.828L334.262 277.641L334.748 278.228C333.436 280.878 329.646 284.071 326.95 285.272C320.464 288.16 317.216 287.714 311.09 285.576C309.195 284.689 308.222 284.436 306.869 282.915L307.016 281.983C317.87 280.721 322.212 281.162 333.324 277.828Z" fill="#5C4FC1"/>
</svg>
